<svg width="44" height="49" viewBox="0 0 44 49" fill="none" xmlns="http://www.w3.org/2000/svg">
<path d="M42 33.1066V15.3288C41.9992 14.5494 41.7935 13.7839 41.4034 13.1091C41.0134 12.4344 40.4528 11.874 39.7778 11.4843L24.2222 2.59544C23.5466 2.20536 22.7802 2 22 2C21.2198 2 20.4534 2.20536 19.7778 2.59544L4.22222 11.4843C3.54725 11.874 2.98662 12.4344 2.59658 13.1091C2.20654 13.7839 2.0008 14.5494 2 15.3288V33.1066C2.0008 33.8859 2.20654 34.6514 2.59658 35.3262C2.98662 36.001 3.54725 36.5613 4.22222 36.951L19.7778 45.8399C20.4534 46.23 21.2198 46.4353 22 46.4353C22.7802 46.4353 23.5466 46.23 24.2222 45.8399L39.7778 36.951C40.4528 36.5613 41.0134 36.001 41.4034 35.3262C41.7935 34.6514 41.9992 33.8859 42 33.1066Z" stroke="url(#paint0_linear_55_190)" stroke-width="3" stroke-linecap="round" stroke-linejoin="round"/>
<path d="M2.6001 13.0178L22.0001 24.24L41.4001 13.0178" stroke="url(#paint1_linear_55_190)" stroke-width="3" stroke-linecap="round" stroke-linejoin="round"/>
<path d="M22 46.6178V24.2178" stroke="url(#paint2_linear_55_190)" stroke-width="3" stroke-linecap="round" stroke-linejoin="round"/>
<defs>
<linearGradient id="paint0_linear_55_190" x1="2" y1="24.2177" x2="42" y2="24.2177" gradientUnits="userSpaceOnUse">
<stop stop-color="#C2CACA"/>
<stop offset="1" stop-color="#E2EBE9"/>
</linearGradient>
<linearGradient id="paint1_linear_55_190" x1="2.6001" y1="18.6289" x2="41.4001" y2="18.6289" gradientUnits="userSpaceOnUse">
<stop stop-color="#C2CACA"/>
<stop offset="1" stop-color="#E2EBE9"/>
</linearGradient>
<linearGradient id="paint2_linear_55_190" x1="22" y1="35.4178" x2="23" y2="35.4178" gradientUnits="userSpaceOnUse">
<stop stop-color="#C2CACA"/>
<stop offset="1" stop-color="#E2EBE9"/>
</linearGradient>
</defs>
</svg>
