<svg width="44" height="39" viewBox="0 0 44 39" fill="none" xmlns="http://www.w3.org/2000/svg">
<circle cx="9.85728" cy="34.7381" r="3.92857" fill="url(#paint0_linear_55_175)"/>
<circle cx="28.1903" cy="34.7381" r="3.92857" fill="url(#paint1_linear_55_175)"/>
<path d="M24.7273 6.51613H30.4612C33.1275 6.51613 35.6186 7.84454 37.1043 10.0586L40.6431 15.3326C41.5277 16.6509 42 18.2026 42 19.7901V22C42 26.4183 38.4183 30 34 30H24.7273M24.7273 6.51613V6.51613C24.7273 4.02194 22.7053 2 20.2111 2H9.99999C5.58172 2 2 5.58172 2 10V22C2 26.4183 5.58172 30 10 30H24.7273M24.7273 6.51613V30" stroke="url(#paint2_linear_55_175)" stroke-width="3"/>
<defs>
<linearGradient id="paint0_linear_55_175" x1="5.92871" y1="34.7381" x2="13.7859" y2="34.7381" gradientUnits="userSpaceOnUse">
<stop stop-color="#C2CACA"/>
<stop offset="1" stop-color="#E2EBE9"/>
</linearGradient>
<linearGradient id="paint1_linear_55_175" x1="24.2617" y1="34.7381" x2="32.1189" y2="34.7381" gradientUnits="userSpaceOnUse">
<stop stop-color="#C2CACA"/>
<stop offset="1" stop-color="#E2EBE9"/>
</linearGradient>
<linearGradient id="paint2_linear_55_175" x1="2" y1="16" x2="42" y2="16" gradientUnits="userSpaceOnUse">
<stop stop-color="#C2CACA"/>
<stop offset="1" stop-color="#E2EBE9"/>
</linearGradient>
</defs>
</svg>
