<svg width="44" height="44" viewBox="0 0 44 44" fill="none" xmlns="http://www.w3.org/2000/svg">
<path d="M2 10.5C1.17157 10.5 0.5 11.1716 0.5 12C0.5 12.8284 1.17157 13.5 2 13.5V10.5ZM43.0607 13.0607C43.6464 12.4749 43.6464 11.5251 43.0607 10.9393L33.5147 1.3934C32.9289 0.807611 31.9792 0.807611 31.3934 1.3934C30.8076 1.97919 30.8076 2.92893 31.3934 3.51472L39.8787 12L31.3934 20.4853C30.8076 21.0711 30.8076 22.0208 31.3934 22.6066C31.9792 23.1924 32.9289 23.1924 33.5147 22.6066L43.0607 13.0607ZM2 13.5H42V10.5H2V13.5Z" fill="url(#paint0_linear_55_179)"/>
<path d="M0.93934 30.9393C0.353553 31.5251 0.353553 32.4749 0.93934 33.0607L10.4853 42.6066C11.0711 43.1924 12.0208 43.1924 12.6066 42.6066C13.1924 42.0208 13.1924 41.0711 12.6066 40.4853L4.12132 32L12.6066 23.5147C13.1924 22.9289 13.1924 21.9792 12.6066 21.3934C12.0208 20.8076 11.0711 20.8076 10.4853 21.3934L0.93934 30.9393ZM42 33.5C42.8284 33.5 43.5 32.8284 43.5 32C43.5 31.1716 42.8284 30.5 42 30.5V33.5ZM2 33.5H42V30.5H2V33.5Z" fill="url(#paint1_linear_55_179)"/>
<defs>
<linearGradient id="paint0_linear_55_179" x1="2" y1="12.5" x2="42" y2="12.5" gradientUnits="userSpaceOnUse">
<stop stop-color="#C2CACA"/>
<stop offset="1" stop-color="#E2EBE9"/>
</linearGradient>
<linearGradient id="paint1_linear_55_179" x1="2" y1="32.5" x2="42" y2="32.5" gradientUnits="userSpaceOnUse">
<stop stop-color="#C2CACA"/>
<stop offset="1" stop-color="#E2EBE9"/>
</linearGradient>
</defs>
</svg>
